<svg width="1080" height="1080" viewBox="0 0 1080 1080" fill="none" xmlns="http://www.w3.org/2000/svg">
<path d="M152.5 594.5C215.592 594.5 266.5 540.415 266.5 474C266.5 407.585 215.592 353.5 152.5 353.5C89.408 353.5 38.5 407.585 38.5 474C38.5 540.415 89.408 594.5 152.5 594.5Z" stroke="#C450D0" stroke-width="5"/>
<path d="M340.727 442.398C340.156 440.411 339.352 438.655 338.318 437.13C337.283 435.578 336.017 434.272 334.52 433.21C333.05 432.121 331.362 431.29 329.456 430.719C327.577 430.147 325.495 429.861 323.208 429.861C318.933 429.861 315.176 430.923 311.936 433.047C308.724 435.17 306.219 438.26 304.422 442.317C302.625 446.346 301.727 451.274 301.727 457.1C301.727 462.926 302.612 467.881 304.381 471.965C306.151 476.049 308.656 479.166 311.896 481.317C315.135 483.441 318.961 484.502 323.371 484.502C327.373 484.502 330.79 483.795 333.621 482.379C336.48 480.936 338.658 478.908 340.156 476.294C341.68 473.68 342.442 470.59 342.442 467.024L346.036 467.555H324.474V454.241H359.472V464.778C359.472 472.129 357.92 478.445 354.816 483.727C351.713 488.981 347.438 493.038 341.993 495.896C336.548 498.728 330.314 500.143 323.289 500.143C315.449 500.143 308.56 498.415 302.625 494.957C296.69 491.472 292.062 486.531 288.74 480.133C285.446 473.708 283.799 466.085 283.799 457.263C283.799 450.484 284.779 444.44 286.739 439.131C288.727 433.795 291.504 429.276 295.07 425.573C298.637 421.87 302.789 419.053 307.526 417.12C312.263 415.187 317.395 414.22 322.922 414.22C327.659 414.22 332.07 414.914 336.153 416.303C340.237 417.664 343.858 419.597 347.016 422.102C350.202 424.607 352.802 427.588 354.816 431.045C356.831 434.476 358.124 438.26 358.696 442.398H340.727ZM370.455 499V415.364H388.137V484.421H423.993V499H370.455ZM449.953 499H431.004L459.877 415.364H482.664L511.496 499H492.547L471.597 434.476H470.944L449.953 499ZM448.769 466.125H493.527V479.929H448.769V466.125ZM519.263 415.364H541.07L564.103 471.557H565.083L588.116 415.364H609.923V499H592.771V444.563H592.077L570.433 498.592H558.753L537.109 444.359H536.415V499H519.263V415.364ZM661.619 415.364L681.833 478.908H682.609L702.865 415.364H722.467L693.636 499H670.848L641.975 415.364H661.619ZM747.917 415.364V499H730.234V415.364H747.917ZM760.165 499V415.364H793.652C799.805 415.364 804.937 416.276 809.048 418.1C813.159 419.924 816.25 422.456 818.319 425.696C820.388 428.908 821.422 432.611 821.422 436.804C821.422 440.071 820.769 442.943 819.462 445.42C818.155 447.871 816.358 449.885 814.072 451.464C811.812 453.016 809.225 454.119 806.312 454.772V455.589C809.498 455.725 812.479 456.624 815.256 458.284C818.06 459.945 820.333 462.273 822.076 465.268C823.818 468.235 824.689 471.775 824.689 475.886C824.689 480.323 823.587 484.285 821.382 487.77C819.203 491.227 815.977 493.963 811.703 495.978C807.429 497.993 802.16 499 795.899 499H760.165ZM777.848 484.543H792.264C797.192 484.543 800.786 483.604 803.045 481.725C805.305 479.82 806.435 477.288 806.435 474.13C806.435 471.815 805.877 469.774 804.76 468.004C803.644 466.234 802.052 464.846 799.982 463.838C797.94 462.831 795.504 462.327 792.672 462.327H777.848V484.543ZM777.848 450.362H790.957C793.38 450.362 795.531 449.94 797.41 449.096C799.315 448.225 800.813 447 801.902 445.42C803.018 443.841 803.576 441.949 803.576 439.744C803.576 436.722 802.501 434.285 800.35 432.434C798.226 430.583 795.204 429.657 791.284 429.657H777.848V450.362ZM833.896 499V415.364H890.252V429.943H851.578V449.872H887.353V464.451H851.578V484.421H890.415V499H833.896Z" fill="#C450D0"/>
<path d="M161.041 454.942C155.83 456.888 152.835 463.655 154.078 470.676L154.039 470.687C152.156 463.851 146.66 459.529 141.261 460.639L141.249 460.589C146.46 458.643 149.455 451.875 148.212 444.855L148.251 444.843C150.133 451.68 155.63 456.001 161.029 454.891L161.041 454.942Z" fill="#C450D0"/>
<path d="M480.598 527V512.455H482.793V518.776H490.044V512.455H492.246V527H490.044V520.658H482.793V527H480.598ZM496.27 527H493.941L499.175 512.455H501.711L506.945 527H504.616L500.503 515.097H500.39L496.27 527ZM496.661 521.304H504.218V523.151H496.661V521.304ZM510.84 512.455V527H508.646V512.455H510.84ZM513.636 527V512.455H518.821C519.948 512.455 520.883 512.649 521.626 513.037C522.374 513.425 522.933 513.963 523.302 514.649C523.672 515.331 523.856 516.119 523.856 517.014C523.856 517.904 523.669 518.688 523.295 519.365C522.926 520.037 522.367 520.561 521.619 520.935C520.876 521.309 519.941 521.496 518.814 521.496H514.886V519.607H518.615C519.325 519.607 519.903 519.505 520.348 519.301C520.798 519.098 521.127 518.802 521.335 518.413C521.543 518.025 521.648 517.559 521.648 517.014C521.648 516.465 521.541 515.989 521.328 515.587C521.12 515.184 520.791 514.876 520.341 514.663C519.896 514.446 519.311 514.337 518.587 514.337H515.831V527H513.636ZM520.817 520.438L524.41 527H521.91L518.388 520.438H520.817ZM545.699 512.455H548.362L552.993 523.761H553.163L557.794 512.455H560.457V527H558.369V516.474H558.234L553.945 526.979H552.212L547.922 516.467H547.787V527H545.699V512.455ZM564.477 527H562.147L567.382 512.455H569.917L575.151 527H572.822L568.71 515.097H568.596L564.477 527ZM564.867 521.304H572.424V523.151H564.867V521.304ZM576.852 527V512.455H579.047V519.401H579.224L585.325 512.455H588.088L582.221 519.003L588.109 527H585.467L580.765 520.501L579.047 522.476V527H576.852ZM589.733 527V512.455H598.852V514.344H591.928V518.776H598.377V520.658H591.928V525.111H598.938V527H589.733ZM610.738 512.455H612.939V522.021C612.939 523.039 612.7 523.941 612.222 524.727C611.744 525.509 611.071 526.124 610.205 526.574C609.338 527.019 608.323 527.241 607.158 527.241C605.998 527.241 604.985 527.019 604.118 526.574C603.252 526.124 602.579 525.509 602.101 524.727C601.623 523.941 601.384 523.039 601.384 522.021V512.455H603.579V521.844C603.579 522.502 603.723 523.087 604.012 523.598C604.305 524.109 604.72 524.512 605.255 524.805C605.79 525.094 606.424 525.239 607.158 525.239C607.897 525.239 608.534 525.094 609.069 524.805C609.608 524.512 610.02 524.109 610.304 523.598C610.593 523.087 610.738 522.502 610.738 521.844V512.455ZM615.73 527V512.455H620.915C622.046 512.455 622.984 512.661 623.727 513.072C624.471 513.484 625.027 514.048 625.396 514.763C625.766 515.473 625.95 516.273 625.95 517.163C625.95 518.058 625.763 518.863 625.389 519.578C625.02 520.288 624.461 520.852 623.713 521.268C622.97 521.68 622.034 521.886 620.908 521.886H617.342V520.026H620.709C621.424 520.026 622.004 519.902 622.449 519.656C622.894 519.405 623.221 519.064 623.429 518.634C623.637 518.203 623.741 517.713 623.741 517.163C623.741 516.614 623.637 516.126 623.429 515.7C623.221 515.274 622.892 514.94 622.442 514.699C621.997 514.457 621.409 514.337 620.68 514.337H617.925V527H615.73ZM650.735 516.276C650.659 515.603 650.347 515.082 649.798 514.713C649.248 514.339 648.557 514.152 647.724 514.152C647.127 514.152 646.611 514.247 646.175 514.436C645.74 514.621 645.401 514.876 645.16 515.203C644.923 515.525 644.805 515.892 644.805 516.304C644.805 516.65 644.885 516.948 645.046 517.199C645.212 517.45 645.427 517.661 645.693 517.831C645.962 517.997 646.251 518.136 646.559 518.25C646.867 518.359 647.163 518.449 647.447 518.52L648.867 518.889C649.331 519.003 649.807 519.157 650.295 519.351C650.783 519.545 651.235 519.801 651.651 520.118C652.068 520.435 652.404 520.828 652.66 521.297C652.92 521.766 653.05 522.327 653.05 522.98C653.05 523.804 652.837 524.536 652.411 525.175C651.99 525.814 651.377 526.318 650.572 526.688C649.772 527.057 648.803 527.241 647.667 527.241C646.578 527.241 645.636 527.069 644.84 526.723C644.045 526.377 643.422 525.887 642.972 525.253C642.523 524.614 642.274 523.856 642.227 522.98H644.428C644.471 523.506 644.641 523.944 644.94 524.294C645.243 524.64 645.629 524.898 646.097 525.068C646.571 525.234 647.089 525.317 647.653 525.317C648.273 525.317 648.825 525.22 649.308 525.026C649.795 524.827 650.179 524.552 650.458 524.202C650.738 523.847 650.877 523.432 650.877 522.959C650.877 522.528 650.754 522.175 650.508 521.901C650.266 521.626 649.937 521.399 649.521 521.219C649.109 521.039 648.642 520.88 648.122 520.743L646.403 520.274C645.238 519.957 644.315 519.491 643.633 518.875C642.956 518.259 642.617 517.445 642.617 516.432C642.617 515.594 642.845 514.862 643.299 514.237C643.754 513.612 644.369 513.127 645.146 512.781C645.922 512.431 646.798 512.256 647.774 512.256C648.758 512.256 649.627 512.429 650.38 512.774C651.138 513.12 651.734 513.596 652.17 514.202C652.605 514.803 652.833 515.494 652.852 516.276H650.735ZM655.273 527V512.455H657.468V519.401H657.645L663.746 512.455H666.509L660.642 519.003L666.53 527H663.888L659.186 520.501L657.468 522.476V527H655.273ZM670.349 512.455V527H668.154V512.455H670.349ZM684.885 512.455V527H682.868L675.474 516.332H675.339V527H673.145V512.455H675.176L682.577 523.136H682.712V512.455H684.885Z" fill="#C450D0"/>
<line x1="634.5" y1="510" x2="634.5" y2="527" stroke="#C450D0"/>
<line x1="535.5" y1="510" x2="535.5" y2="527" stroke="#C450D0"/>
<path d="M202.607 465.362L188.537 472.479C188.537 472.479 192.966 484.172 192.494 491.934C192.347 494.366 192.358 495.801 191.615 498.103C190.83 500.534 190.048 501.804 188.537 503.797C187.075 505.726 184.141 508.067 184.141 508.067C184.141 508.067 180.864 510.828 178.425 511.863C175.981 512.901 174.445 513.02 171.83 513.287C168.236 513.654 166.123 513.648 162.597 512.812C159.358 512.045 157.566 511.295 154.683 509.491C152.465 508.102 151.616 507.668 149.556 506C148.182 504.888 147.159 503.632 145.89 502.373C143.607 500.109 141.054 495.5 141.054 495.5L134.459 481.97C134.459 481.97 132.216 476.23 130.941 472.479C129.634 468.631 128.73 466.517 127.864 462.515C127.036 458.692 127.024 456.448 126.545 452.55C126.18 449.589 125.886 447.937 125.665 444.958C125.268 439.602 125.392 436.563 125.665 431.198C125.864 427.295 125.862 425.072 126.545 421.233C126.945 418.982 127.864 415.539 127.864 415.539L130.502 408.422L136.222 414.5L141.111 418.5C141.111 418.5 144.748 421.017 147.209 422.182C149.896 423.455 151.409 424.21 154.244 425.029C157.926 426.094 163.916 426.453 163.916 426.453C163.916 426.453 170.951 426.872 175.347 425.978C178.332 425.371 180.047 424.952 182.822 423.606C186.427 421.857 190.296 418.861 190.736 418.386C191.175 417.912 196.049 414.111 197.77 410.794C198.832 408.749 198.986 408.793 199.529 406.524C199.967 404.694 200.408 402.245 200.408 400.355C200.408 398.465 200.132 397.384 199.529 395.61C198.231 391.788 196.322 390.12 193.395 387.562L193.374 387.543C190.509 385.04 188.477 384.179 185.02 382.798C182.52 381.8 181.052 381.388 178.425 380.9C174.898 380.246 173.265 380.155 169.724 379.956L169.632 379.951C166.541 379.778 164.373 379.877 161.278 379.951C157.999 380.03 156.156 380.294 152.925 380.9C149.437 381.555 144.131 383.273 144.131 383.273L137.097 385.645L127.424 389.916L133.579 397.982C133.579 397.982 136.157 395.249 137.976 393.712C139.139 392.729 141.054 391.339 141.054 391.339C141.054 391.339 142.854 389.767 144.131 388.967C145.594 388.05 148.088 387.069 148.088 387.069C148.088 387.069 149.928 386.1 151.166 385.645C152.506 385.153 154.683 384.696 154.683 384.696C154.683 384.696 157.072 383.978 158.64 383.747C161.192 383.372 165.235 383.747 165.235 383.747H169.632C169.632 383.747 173.204 383.928 175.347 384.696C177.169 385.35 179.744 387.069 179.744 387.069C179.744 387.069 181.703 388.087 182.822 388.967C184.392 390.202 185.145 391.109 186.339 392.763C187.334 394.142 188.537 396.559 188.537 396.559C188.537 396.559 189.959 399.342 190.296 401.304C190.609 403.126 190.736 404.151 190.296 406.049C189.856 407.947 189.494 409.086 188.537 410.794C187.468 412.703 185.02 415.065 185.02 415.065C185.02 415.065 183.003 417.264 181.503 418.386C179.609 419.802 178.422 420.479 176.227 421.233C173.751 422.084 172.224 421.991 169.632 422.182C166.891 422.384 165.338 422.384 162.597 422.182C160.005 421.991 158.508 421.976 156.002 421.233C153.48 420.485 152.138 419.748 149.847 418.386C147.469 416.973 145.984 416.208 143.778 414.5C140.997 412.347 139.617 410.958 137.122 408.447L137.097 408.422C134.604 405.913 133.407 404.262 131.381 401.304C129.683 398.824 127.424 394.661 127.424 394.661C127.424 394.661 124.036 389.639 121.269 387.069C119.211 385.158 117.952 384.169 115.553 382.798C112.96 381.317 111.368 380.703 108.518 379.951C105.166 379.067 103.176 378.983 99.7251 379.002C96.4448 379.021 94.5313 379 91.3715 379.951C88.8523 380.709 87.5297 381.482 85.2162 382.798C80.6594 385.39 78.3981 387.51 74.6642 391.339C71.8425 394.233 70.9536 396.585 68.0693 399.406C65.9827 401.447 64.7923 402.631 62.3536 404.151C60.5571 405.271 59.5623 406.146 57.5173 406.524C56.1634 406.773 54 406.524 54 406.524V407.473H57.5173L61.0346 406.049L65.4313 403.202C65.4313 403.202 72.8947 395.556 78.1816 391.339C80.3648 389.598 80.753 389.309 82.8889 387.5C83.9439 386.607 85.0441 385.788 86.4444 385C88.2222 384 89.4465 383.658 91.3715 383.273C94.2466 382.698 95.9227 382.721 98.8458 382.798C100.913 382.853 104.122 383.273 104.122 383.273L108.518 384.696C108.518 384.696 112.451 385.715 114.674 387.069C117.742 388.938 121.269 393.712 121.269 393.712C121.269 393.712 118.527 396.407 118 397C115.778 399.5 115.993 399 114.444 401.304C112.784 403.775 113.731 402.4 110.277 407.473C106.823 412.545 104.122 418.386 104.122 418.386C104.122 418.386 100.118 426.478 99.7251 432.147C99.6097 433.81 99.0534 436.469 98.8458 439.264C98.3239 446.293 98.9151 449.189 99.7251 457.295L99.7386 457.43C99.9905 459.952 100.136 461.413 100.604 463.938C101.819 470.49 105.88 480.072 105.88 480.072C105.88 480.072 109.101 488.219 111.596 491.934C114.091 495.649 115.929 497.384 119.07 500.475C123.334 504.67 125.85 507.037 130.941 509.965C135.162 512.393 137.754 513.367 142.373 514.71C146.08 515.788 148.224 516.208 152.045 516.608C156.489 517.073 159.014 517.21 163.476 517.083C167.085 516.98 169.136 517.16 172.709 516.608C177.286 515.902 179.916 515.313 184.141 513.287C187.235 511.802 193.556 507 193.556 507C193.556 507 196.05 513.876 196.891 518.506C198.375 526.676 198.108 531.624 196.891 539.859C196.307 543.809 196.126 546.134 194.693 549.823C193.017 554.137 192.903 556.052 190.296 559.788C186.711 564.927 183.934 568.613 178.95 572.125C171.859 577.123 169.172 578.992 161.111 580C153.111 581 154.444 581 143.333 580C140.667 579.76 137.014 575.544 135.83 572.502C134.102 568.06 134.898 564.606 134.898 559.788C134.898 555.897 136.157 553.47 134.898 549.823C133.499 545.77 130.934 541.75 127.333 540C123.55 538.161 120.07 538.342 116.222 540C112.328 541.678 110.484 543.064 109.398 547.5C108.871 549.65 109.398 555.518 109.398 555.518C109.398 555.518 109.912 564.227 112.475 568.804C115.444 574.104 123.907 578.768 123.907 578.768C123.907 578.768 132.324 582.334 137.976 583.513C147.585 585.518 153.42 585.473 163.037 583.513C173.627 581.355 187.658 572.125 187.658 572.125C187.658 572.125 201.12 561.935 207.443 553.62C207.443 553.62 214.716 544.142 217.555 537.012C219.94 531.024 220.693 527.336 221.512 520.879C222.421 513.719 221.843 509.591 221.512 502.373C220.597 482.409 212.719 452.076 212.719 452.076L202.607 465.362Z" fill="#C450D0"/>
</svg>
